<mxfile host="Electron" agent="Mozilla/5.0 (Windows NT 10.0; Win64; x64) AppleWebKit/537.36 (KHTML, like Gecko) draw.io/24.7.8 Chrome/128.0.6613.36 Electron/32.0.1 Safari/537.36" version="24.7.8">
  <diagram name="Page-1" id="tfp2UGdKKr5tNkB89Sjf">
    <mxGraphModel dx="2122" dy="768" grid="1" gridSize="10" guides="1" tooltips="1" connect="1" arrows="1" fold="1" page="1" pageScale="1" pageWidth="827" pageHeight="1169" math="1" shadow="0">
      <root>
        <mxCell id="0" />
        <mxCell id="1" parent="0" />
        <mxCell id="AGZa29YLZwoFYHeKe63N-1" value="" style="endArrow=none;html=1;rounded=0;strokeWidth=2;" parent="1" edge="1">
          <mxGeometry width="50" height="50" relative="1" as="geometry">
            <mxPoint x="187" y="298" as="sourcePoint" />
            <mxPoint x="217" y="258" as="targetPoint" />
          </mxGeometry>
        </mxCell>
        <mxCell id="AGZa29YLZwoFYHeKe63N-17" value="$$B$$" style="rounded=0;whiteSpace=wrap;html=1;" parent="1" vertex="1">
          <mxGeometry x="-100" y="380" width="40" height="30" as="geometry" />
        </mxCell>
        <mxCell id="AGZa29YLZwoFYHeKe63N-18" value="0.4" style="rounded=0;whiteSpace=wrap;html=1;" parent="1" vertex="1">
          <mxGeometry x="-60" y="380" width="70" height="30" as="geometry" />
        </mxCell>
        <mxCell id="AGZa29YLZwoFYHeKe63N-19" value="$$D$$" style="rounded=0;whiteSpace=wrap;html=1;" parent="1" vertex="1">
          <mxGeometry x="-100" y="410" width="40" height="30" as="geometry" />
        </mxCell>
        <mxCell id="AGZa29YLZwoFYHeKe63N-20" value="0.32" style="rounded=0;whiteSpace=wrap;html=1;" parent="1" vertex="1">
          <mxGeometry x="-60" y="410" width="70" height="30" as="geometry" />
        </mxCell>
        <mxCell id="AGZa29YLZwoFYHeKe63N-21" value="$$C$$" style="rounded=0;whiteSpace=wrap;html=1;fillColor=#dae8fc;strokeColor=#6c8ebf;" parent="1" vertex="1">
          <mxGeometry x="-100" y="440" width="40" height="30" as="geometry" />
        </mxCell>
        <mxCell id="AGZa29YLZwoFYHeKe63N-57" style="edgeStyle=orthogonalEdgeStyle;rounded=0;orthogonalLoop=1;jettySize=auto;html=1;exitX=1;exitY=0.5;exitDx=0;exitDy=0;entryX=0;entryY=0.5;entryDx=0;entryDy=0;" parent="1" source="AGZa29YLZwoFYHeKe63N-22" target="AGZa29YLZwoFYHeKe63N-55" edge="1">
          <mxGeometry relative="1" as="geometry" />
        </mxCell>
        <mxCell id="AGZa29YLZwoFYHeKe63N-22" value="0.2" style="rounded=0;whiteSpace=wrap;html=1;fillColor=#dae8fc;strokeColor=#6c8ebf;" parent="1" vertex="1">
          <mxGeometry x="-60" y="440" width="70" height="30" as="geometry" />
        </mxCell>
        <mxCell id="AGZa29YLZwoFYHeKe63N-23" value="$$A$$" style="rounded=0;whiteSpace=wrap;html=1;fillColor=#dae8fc;strokeColor=#6c8ebf;" parent="1" vertex="1">
          <mxGeometry x="-100" y="470" width="40" height="30" as="geometry" />
        </mxCell>
        <mxCell id="AGZa29YLZwoFYHeKe63N-56" style="edgeStyle=orthogonalEdgeStyle;rounded=0;orthogonalLoop=1;jettySize=auto;html=1;exitX=1;exitY=0.5;exitDx=0;exitDy=0;entryX=0.5;entryY=1;entryDx=0;entryDy=0;" parent="1" source="AGZa29YLZwoFYHeKe63N-24" target="AGZa29YLZwoFYHeKe63N-55" edge="1">
          <mxGeometry relative="1" as="geometry" />
        </mxCell>
        <mxCell id="AGZa29YLZwoFYHeKe63N-24" value="0.08" style="rounded=0;whiteSpace=wrap;html=1;fillColor=#dae8fc;strokeColor=#6c8ebf;" parent="1" vertex="1">
          <mxGeometry x="-60" y="470" width="70" height="30" as="geometry" />
        </mxCell>
        <mxCell id="AGZa29YLZwoFYHeKe63N-25" value="Node" style="rounded=0;whiteSpace=wrap;html=1;" parent="1" vertex="1">
          <mxGeometry x="-100" y="360" width="40" height="20" as="geometry" />
        </mxCell>
        <mxCell id="AGZa29YLZwoFYHeKe63N-26" value="Frequency" style="rounded=0;whiteSpace=wrap;html=1;" parent="1" vertex="1">
          <mxGeometry x="-60" y="360" width="70" height="20" as="geometry" />
        </mxCell>
        <mxCell id="AGZa29YLZwoFYHeKe63N-31" value="$$A$$" style="text;html=1;align=center;verticalAlign=middle;whiteSpace=wrap;rounded=0;fontSize=16;" parent="1" vertex="1">
          <mxGeometry x="170" y="302" width="20" height="20" as="geometry" />
        </mxCell>
        <mxCell id="AGZa29YLZwoFYHeKe63N-33" value="" style="endArrow=none;html=1;rounded=0;strokeWidth=2;" parent="1" edge="1">
          <mxGeometry width="50" height="50" relative="1" as="geometry">
            <mxPoint x="262" y="298" as="sourcePoint" />
            <mxPoint x="232" y="258" as="targetPoint" />
          </mxGeometry>
        </mxCell>
        <mxCell id="AGZa29YLZwoFYHeKe63N-34" value="$$C$$" style="text;html=1;align=center;verticalAlign=middle;whiteSpace=wrap;rounded=0;fontSize=16;" parent="1" vertex="1">
          <mxGeometry x="260" y="302" width="17" height="20" as="geometry" />
        </mxCell>
        <mxCell id="AGZa29YLZwoFYHeKe63N-35" value="$$P_{AC}$$" style="text;html=1;align=center;verticalAlign=middle;whiteSpace=wrap;rounded=0;fontSize=16;" parent="1" vertex="1">
          <mxGeometry x="215" y="230" width="20" height="20" as="geometry" />
        </mxCell>
        <mxCell id="AGZa29YLZwoFYHeKe63N-37" value="" style="endArrow=none;html=1;rounded=0;strokeWidth=2;" parent="1" edge="1">
          <mxGeometry width="50" height="50" relative="1" as="geometry">
            <mxPoint x="431" y="298" as="sourcePoint" />
            <mxPoint x="461" y="258" as="targetPoint" />
          </mxGeometry>
        </mxCell>
        <mxCell id="AGZa29YLZwoFYHeKe63N-38" value="$$A$$" style="text;html=1;align=center;verticalAlign=middle;whiteSpace=wrap;rounded=0;fontSize=16;" parent="1" vertex="1">
          <mxGeometry x="414" y="302" width="20" height="20" as="geometry" />
        </mxCell>
        <mxCell id="AGZa29YLZwoFYHeKe63N-39" value="" style="endArrow=none;html=1;rounded=0;strokeWidth=2;" parent="1" edge="1">
          <mxGeometry width="50" height="50" relative="1" as="geometry">
            <mxPoint x="506" y="298" as="sourcePoint" />
            <mxPoint x="476" y="258" as="targetPoint" />
          </mxGeometry>
        </mxCell>
        <mxCell id="AGZa29YLZwoFYHeKe63N-40" value="$$C$$" style="text;html=1;align=center;verticalAlign=middle;whiteSpace=wrap;rounded=0;fontSize=16;" parent="1" vertex="1">
          <mxGeometry x="504" y="302" width="17" height="20" as="geometry" />
        </mxCell>
        <mxCell id="AGZa29YLZwoFYHeKe63N-41" value="$$P_{AC}$$" style="text;html=1;align=center;verticalAlign=middle;whiteSpace=wrap;rounded=0;fontSize=16;" parent="1" vertex="1">
          <mxGeometry x="459" y="230" width="20" height="20" as="geometry" />
        </mxCell>
        <mxCell id="AGZa29YLZwoFYHeKe63N-42" value="$$B$$" style="rounded=0;whiteSpace=wrap;html=1;" parent="1" vertex="1">
          <mxGeometry x="170" y="380" width="40" height="30" as="geometry" />
        </mxCell>
        <mxCell id="AGZa29YLZwoFYHeKe63N-43" value="0.4" style="rounded=0;whiteSpace=wrap;html=1;" parent="1" vertex="1">
          <mxGeometry x="210" y="380" width="70" height="30" as="geometry" />
        </mxCell>
        <mxCell id="AGZa29YLZwoFYHeKe63N-44" value="$$D$$" style="rounded=0;whiteSpace=wrap;html=1;fillColor=#dae8fc;strokeColor=#6c8ebf;" parent="1" vertex="1">
          <mxGeometry x="170" y="410" width="40" height="30" as="geometry" />
        </mxCell>
        <mxCell id="AGZa29YLZwoFYHeKe63N-75" style="edgeStyle=orthogonalEdgeStyle;rounded=0;orthogonalLoop=1;jettySize=auto;html=1;exitX=1;exitY=0.5;exitDx=0;exitDy=0;entryX=0;entryY=0.5;entryDx=0;entryDy=0;" parent="1" source="AGZa29YLZwoFYHeKe63N-45" target="AGZa29YLZwoFYHeKe63N-72" edge="1">
          <mxGeometry relative="1" as="geometry" />
        </mxCell>
        <mxCell id="AGZa29YLZwoFYHeKe63N-45" value="0.32" style="rounded=0;whiteSpace=wrap;html=1;fillColor=#dae8fc;strokeColor=#6c8ebf;" parent="1" vertex="1">
          <mxGeometry x="210" y="410" width="70" height="30" as="geometry" />
        </mxCell>
        <mxCell id="AGZa29YLZwoFYHeKe63N-50" value="Node" style="rounded=0;whiteSpace=wrap;html=1;" parent="1" vertex="1">
          <mxGeometry x="170" y="360" width="40" height="20" as="geometry" />
        </mxCell>
        <mxCell id="AGZa29YLZwoFYHeKe63N-51" value="Frequency" style="rounded=0;whiteSpace=wrap;html=1;" parent="1" vertex="1">
          <mxGeometry x="210" y="360" width="70" height="20" as="geometry" />
        </mxCell>
        <mxCell id="AGZa29YLZwoFYHeKe63N-52" value="$$P_{AC}$$" style="rounded=0;whiteSpace=wrap;html=1;fillColor=#dae8fc;strokeColor=#6c8ebf;" parent="1" vertex="1">
          <mxGeometry x="170" y="440" width="40" height="30" as="geometry" />
        </mxCell>
        <mxCell id="AGZa29YLZwoFYHeKe63N-76" style="edgeStyle=orthogonalEdgeStyle;rounded=0;orthogonalLoop=1;jettySize=auto;html=1;exitX=1;exitY=0.5;exitDx=0;exitDy=0;entryX=0.5;entryY=1;entryDx=0;entryDy=0;" parent="1" source="AGZa29YLZwoFYHeKe63N-54" target="AGZa29YLZwoFYHeKe63N-72" edge="1">
          <mxGeometry relative="1" as="geometry" />
        </mxCell>
        <mxCell id="AGZa29YLZwoFYHeKe63N-54" value="0.28" style="rounded=0;whiteSpace=wrap;html=1;fillColor=#dae8fc;strokeColor=#6c8ebf;" parent="1" vertex="1">
          <mxGeometry x="210" y="440" width="70" height="30" as="geometry" />
        </mxCell>
        <mxCell id="AGZa29YLZwoFYHeKe63N-58" style="edgeStyle=orthogonalEdgeStyle;rounded=0;orthogonalLoop=1;jettySize=auto;html=1;exitX=1;exitY=0.5;exitDx=0;exitDy=0;entryX=0;entryY=0.5;entryDx=0;entryDy=0;" parent="1" source="AGZa29YLZwoFYHeKe63N-55" target="AGZa29YLZwoFYHeKe63N-52" edge="1">
          <mxGeometry relative="1" as="geometry" />
        </mxCell>
        <mxCell id="AGZa29YLZwoFYHeKe63N-55" value="" style="shape=sumEllipse;perimeter=ellipsePerimeter;whiteSpace=wrap;html=1;backgroundOutline=1;strokeWidth=2;" parent="1" vertex="1">
          <mxGeometry x="80" y="445" width="20" height="20" as="geometry" />
        </mxCell>
        <mxCell id="AGZa29YLZwoFYHeKe63N-59" value="$$P_{ACD}$$" style="text;html=1;align=center;verticalAlign=middle;whiteSpace=wrap;rounded=0;fontSize=16;" parent="1" vertex="1">
          <mxGeometry x="510" y="163" width="20" height="20" as="geometry" />
        </mxCell>
        <mxCell id="AGZa29YLZwoFYHeKe63N-60" value="" style="endArrow=none;html=1;rounded=0;strokeWidth=2;" parent="1" edge="1">
          <mxGeometry width="50" height="50" relative="1" as="geometry">
            <mxPoint x="479" y="230" as="sourcePoint" />
            <mxPoint x="509" y="190" as="targetPoint" />
          </mxGeometry>
        </mxCell>
        <mxCell id="AGZa29YLZwoFYHeKe63N-61" value="" style="endArrow=none;html=1;rounded=0;strokeWidth=2;" parent="1" edge="1">
          <mxGeometry width="50" height="50" relative="1" as="geometry">
            <mxPoint x="554" y="230" as="sourcePoint" />
            <mxPoint x="524" y="190" as="targetPoint" />
          </mxGeometry>
        </mxCell>
        <mxCell id="AGZa29YLZwoFYHeKe63N-62" value="$$D$$" style="text;html=1;align=center;verticalAlign=middle;whiteSpace=wrap;rounded=0;fontSize=16;" parent="1" vertex="1">
          <mxGeometry x="551" y="234" width="17" height="20" as="geometry" />
        </mxCell>
        <mxCell id="AGZa29YLZwoFYHeKe63N-64" value="$$B$$" style="rounded=0;whiteSpace=wrap;html=1;strokeColor=#6c8ebf;fillColor=#dae8fc;" parent="1" vertex="1">
          <mxGeometry x="440" y="410" width="40" height="30" as="geometry" />
        </mxCell>
        <mxCell id="AGZa29YLZwoFYHeKe63N-108" style="edgeStyle=orthogonalEdgeStyle;rounded=0;orthogonalLoop=1;jettySize=auto;html=1;exitX=1;exitY=0.5;exitDx=0;exitDy=0;entryX=0.5;entryY=1;entryDx=0;entryDy=0;" parent="1" source="AGZa29YLZwoFYHeKe63N-65" target="AGZa29YLZwoFYHeKe63N-106" edge="1">
          <mxGeometry relative="1" as="geometry" />
        </mxCell>
        <mxCell id="AGZa29YLZwoFYHeKe63N-65" value="0.4" style="rounded=0;whiteSpace=wrap;html=1;strokeColor=#6c8ebf;fillColor=#dae8fc;" parent="1" vertex="1">
          <mxGeometry x="480" y="410" width="70" height="30" as="geometry" />
        </mxCell>
        <mxCell id="AGZa29YLZwoFYHeKe63N-66" value="$$P_{ACD}$$" style="rounded=0;whiteSpace=wrap;html=1;strokeColor=#6c8ebf;fillColor=#dae8fc;" parent="1" vertex="1">
          <mxGeometry x="440" y="380" width="40" height="30" as="geometry" />
        </mxCell>
        <mxCell id="AGZa29YLZwoFYHeKe63N-107" style="edgeStyle=orthogonalEdgeStyle;rounded=0;orthogonalLoop=1;jettySize=auto;html=1;exitX=1;exitY=0.5;exitDx=0;exitDy=0;entryX=0;entryY=0.5;entryDx=0;entryDy=0;" parent="1" source="AGZa29YLZwoFYHeKe63N-67" target="AGZa29YLZwoFYHeKe63N-106" edge="1">
          <mxGeometry relative="1" as="geometry" />
        </mxCell>
        <mxCell id="AGZa29YLZwoFYHeKe63N-67" value="0.6" style="rounded=0;whiteSpace=wrap;html=1;strokeColor=#6c8ebf;fillColor=#dae8fc;" parent="1" vertex="1">
          <mxGeometry x="480" y="380" width="70" height="30" as="geometry" />
        </mxCell>
        <mxCell id="AGZa29YLZwoFYHeKe63N-68" value="Node" style="rounded=0;whiteSpace=wrap;html=1;" parent="1" vertex="1">
          <mxGeometry x="440" y="360" width="40" height="20" as="geometry" />
        </mxCell>
        <mxCell id="AGZa29YLZwoFYHeKe63N-69" value="Frequency" style="rounded=0;whiteSpace=wrap;html=1;" parent="1" vertex="1">
          <mxGeometry x="480" y="360" width="70" height="20" as="geometry" />
        </mxCell>
        <mxCell id="AGZa29YLZwoFYHeKe63N-87" style="edgeStyle=orthogonalEdgeStyle;rounded=0;orthogonalLoop=1;jettySize=auto;html=1;exitX=1;exitY=0.5;exitDx=0;exitDy=0;entryX=0;entryY=0.5;entryDx=0;entryDy=0;" parent="1" source="AGZa29YLZwoFYHeKe63N-72" target="AGZa29YLZwoFYHeKe63N-66" edge="1">
          <mxGeometry relative="1" as="geometry" />
        </mxCell>
        <mxCell id="AGZa29YLZwoFYHeKe63N-72" value="" style="shape=sumEllipse;perimeter=ellipsePerimeter;whiteSpace=wrap;html=1;backgroundOutline=1;strokeWidth=2;" parent="1" vertex="1">
          <mxGeometry x="350" y="415" width="20" height="20" as="geometry" />
        </mxCell>
        <mxCell id="AGZa29YLZwoFYHeKe63N-77" value="" style="endArrow=none;html=1;rounded=0;strokeWidth=2;" parent="1" edge="1">
          <mxGeometry width="50" height="50" relative="1" as="geometry">
            <mxPoint x="1007" y="299.5" as="sourcePoint" />
            <mxPoint x="1037" y="259.5" as="targetPoint" />
          </mxGeometry>
        </mxCell>
        <mxCell id="AGZa29YLZwoFYHeKe63N-78" value="$$A$$" style="text;html=1;align=center;verticalAlign=middle;whiteSpace=wrap;rounded=0;fontSize=16;" parent="1" vertex="1">
          <mxGeometry x="990" y="303.5" width="20" height="20" as="geometry" />
        </mxCell>
        <mxCell id="AGZa29YLZwoFYHeKe63N-79" value="" style="endArrow=none;html=1;rounded=0;strokeWidth=2;" parent="1" edge="1">
          <mxGeometry width="50" height="50" relative="1" as="geometry">
            <mxPoint x="1066" y="299.5" as="sourcePoint" />
            <mxPoint x="1036" y="259.5" as="targetPoint" />
          </mxGeometry>
        </mxCell>
        <mxCell id="AGZa29YLZwoFYHeKe63N-80" value="$$C$$" style="text;html=1;align=center;verticalAlign=middle;whiteSpace=wrap;rounded=0;fontSize=16;" parent="1" vertex="1">
          <mxGeometry x="1060" y="303.5" width="17" height="20" as="geometry" />
        </mxCell>
        <mxCell id="AGZa29YLZwoFYHeKe63N-83" value="" style="endArrow=none;html=1;rounded=0;strokeWidth=2;" parent="1" edge="1">
          <mxGeometry width="50" height="50" relative="1" as="geometry">
            <mxPoint x="1037" y="259.5" as="sourcePoint" />
            <mxPoint x="1067" y="219.5" as="targetPoint" />
          </mxGeometry>
        </mxCell>
        <mxCell id="AGZa29YLZwoFYHeKe63N-84" value="" style="endArrow=none;html=1;rounded=0;strokeWidth=2;" parent="1" edge="1">
          <mxGeometry width="50" height="50" relative="1" as="geometry">
            <mxPoint x="1096" y="259.5" as="sourcePoint" />
            <mxPoint x="1066" y="219.5" as="targetPoint" />
          </mxGeometry>
        </mxCell>
        <mxCell id="AGZa29YLZwoFYHeKe63N-85" value="$$D$$" style="text;html=1;align=center;verticalAlign=middle;whiteSpace=wrap;rounded=0;fontSize=16;" parent="1" vertex="1">
          <mxGeometry x="1093.5" y="262.5" width="17" height="20" as="geometry" />
        </mxCell>
        <mxCell id="AGZa29YLZwoFYHeKe63N-96" value="$$Root$$" style="rounded=0;whiteSpace=wrap;html=1;" parent="1" vertex="1">
          <mxGeometry x="710" y="380" width="40" height="30" as="geometry" />
        </mxCell>
        <mxCell id="AGZa29YLZwoFYHeKe63N-97" value="1" style="rounded=0;whiteSpace=wrap;html=1;" parent="1" vertex="1">
          <mxGeometry x="750" y="380" width="70" height="30" as="geometry" />
        </mxCell>
        <mxCell id="AGZa29YLZwoFYHeKe63N-98" value="Node" style="rounded=0;whiteSpace=wrap;html=1;" parent="1" vertex="1">
          <mxGeometry x="710" y="360" width="40" height="20" as="geometry" />
        </mxCell>
        <mxCell id="AGZa29YLZwoFYHeKe63N-99" value="Frequency" style="rounded=0;whiteSpace=wrap;html=1;" parent="1" vertex="1">
          <mxGeometry x="750" y="360" width="70" height="20" as="geometry" />
        </mxCell>
        <mxCell id="AGZa29YLZwoFYHeKe63N-109" style="edgeStyle=orthogonalEdgeStyle;rounded=0;orthogonalLoop=1;jettySize=auto;html=1;exitX=1;exitY=0.5;exitDx=0;exitDy=0;entryX=0;entryY=0.5;entryDx=0;entryDy=0;" parent="1" source="AGZa29YLZwoFYHeKe63N-106" target="AGZa29YLZwoFYHeKe63N-96" edge="1">
          <mxGeometry relative="1" as="geometry" />
        </mxCell>
        <mxCell id="AGZa29YLZwoFYHeKe63N-106" value="" style="shape=sumEllipse;perimeter=ellipsePerimeter;whiteSpace=wrap;html=1;backgroundOutline=1;strokeWidth=2;" parent="1" vertex="1">
          <mxGeometry x="620" y="385" width="20" height="20" as="geometry" />
        </mxCell>
        <mxCell id="AGZa29YLZwoFYHeKe63N-110" value="" style="endArrow=none;html=1;rounded=0;strokeWidth=2;" parent="1" edge="1">
          <mxGeometry width="50" height="50" relative="1" as="geometry">
            <mxPoint x="1063.5" y="224.5" as="sourcePoint" />
            <mxPoint x="1093.5" y="184.5" as="targetPoint" />
          </mxGeometry>
        </mxCell>
        <mxCell id="AGZa29YLZwoFYHeKe63N-111" value="" style="endArrow=none;html=1;rounded=0;strokeWidth=2;" parent="1" edge="1">
          <mxGeometry width="50" height="50" relative="1" as="geometry">
            <mxPoint x="1123.5" y="224.5" as="sourcePoint" />
            <mxPoint x="1093.5" y="184.5" as="targetPoint" />
          </mxGeometry>
        </mxCell>
        <mxCell id="AGZa29YLZwoFYHeKe63N-112" value="$$Root$$" style="text;html=1;align=center;verticalAlign=middle;whiteSpace=wrap;rounded=0;fontSize=16;" parent="1" vertex="1">
          <mxGeometry x="1084" y="159.5" width="20" height="20" as="geometry" />
        </mxCell>
        <mxCell id="AGZa29YLZwoFYHeKe63N-113" value="$$B$$" style="text;html=1;align=center;verticalAlign=middle;whiteSpace=wrap;rounded=0;fontSize=16;" parent="1" vertex="1">
          <mxGeometry x="1123" y="226.5" width="17" height="20" as="geometry" />
        </mxCell>
        <mxCell id="AGZa29YLZwoFYHeKe63N-114" value="" style="shape=flexArrow;endArrow=classic;html=1;rounded=0;strokeWidth=2;" parent="1" edge="1">
          <mxGeometry width="50" height="50" relative="1" as="geometry">
            <mxPoint x="310" y="270" as="sourcePoint" />
            <mxPoint x="390" y="250" as="targetPoint" />
          </mxGeometry>
        </mxCell>
        <mxCell id="AGZa29YLZwoFYHeKe63N-116" value="" style="shape=flexArrow;endArrow=classic;html=1;rounded=0;strokeWidth=2;" parent="1" edge="1">
          <mxGeometry width="50" height="50" relative="1" as="geometry">
            <mxPoint x="600" y="220" as="sourcePoint" />
            <mxPoint x="680" y="200" as="targetPoint" />
          </mxGeometry>
        </mxCell>
        <mxCell id="AGZa29YLZwoFYHeKe63N-117" value="&lt;font style=&quot;font-size: 24px;&quot;&gt;Huffman Coding - Least Frequency First Assign&lt;/font&gt;" style="text;html=1;align=center;verticalAlign=middle;whiteSpace=wrap;rounded=0;" parent="1" vertex="1">
          <mxGeometry x="320" y="500" width="580" height="70" as="geometry" />
        </mxCell>
        <mxCell id="m2BZuW3RzS-7wvQAcyOY-1" value="0" style="text;html=1;align=center;verticalAlign=middle;whiteSpace=wrap;rounded=0;fontSize=12;strokeWidth=2;" vertex="1" parent="1">
          <mxGeometry x="1003" y="263.5" width="20" height="22" as="geometry" />
        </mxCell>
        <mxCell id="m2BZuW3RzS-7wvQAcyOY-2" value="0" style="text;html=1;align=center;verticalAlign=middle;whiteSpace=wrap;rounded=0;fontSize=12;strokeWidth=2;" vertex="1" parent="1">
          <mxGeometry x="1030" y="224.5" width="20" height="22" as="geometry" />
        </mxCell>
        <mxCell id="m2BZuW3RzS-7wvQAcyOY-3" value="0" style="text;html=1;align=center;verticalAlign=middle;whiteSpace=wrap;rounded=0;fontSize=12;strokeWidth=2;" vertex="1" parent="1">
          <mxGeometry x="1060" y="184.5" width="20" height="22" as="geometry" />
        </mxCell>
        <mxCell id="m2BZuW3RzS-7wvQAcyOY-4" value="1" style="text;html=1;align=center;verticalAlign=middle;whiteSpace=wrap;rounded=0;fontSize=12;strokeWidth=2;" vertex="1" parent="1">
          <mxGeometry x="1104" y="184.5" width="20" height="22" as="geometry" />
        </mxCell>
        <mxCell id="m2BZuW3RzS-7wvQAcyOY-5" value="1" style="text;html=1;align=center;verticalAlign=middle;whiteSpace=wrap;rounded=0;fontSize=12;strokeWidth=2;" vertex="1" parent="1">
          <mxGeometry x="1080" y="224.5" width="20" height="22" as="geometry" />
        </mxCell>
        <mxCell id="m2BZuW3RzS-7wvQAcyOY-6" value="1" style="text;html=1;align=center;verticalAlign=middle;whiteSpace=wrap;rounded=0;fontSize=12;strokeWidth=2;" vertex="1" parent="1">
          <mxGeometry x="1050" y="263.5" width="20" height="22" as="geometry" />
        </mxCell>
        <mxCell id="m2BZuW3RzS-7wvQAcyOY-24" value="" style="endArrow=none;html=1;rounded=0;strokeWidth=2;" edge="1" parent="1">
          <mxGeometry width="50" height="50" relative="1" as="geometry">
            <mxPoint x="690" y="299.5" as="sourcePoint" />
            <mxPoint x="720" y="259.5" as="targetPoint" />
          </mxGeometry>
        </mxCell>
        <mxCell id="m2BZuW3RzS-7wvQAcyOY-25" value="$$A$$" style="text;html=1;align=center;verticalAlign=middle;whiteSpace=wrap;rounded=0;fontSize=16;" vertex="1" parent="1">
          <mxGeometry x="673" y="303.5" width="20" height="20" as="geometry" />
        </mxCell>
        <mxCell id="m2BZuW3RzS-7wvQAcyOY-26" value="" style="endArrow=none;html=1;rounded=0;strokeWidth=2;" edge="1" parent="1">
          <mxGeometry width="50" height="50" relative="1" as="geometry">
            <mxPoint x="765" y="299.5" as="sourcePoint" />
            <mxPoint x="735" y="259.5" as="targetPoint" />
          </mxGeometry>
        </mxCell>
        <mxCell id="m2BZuW3RzS-7wvQAcyOY-27" value="$$C$$" style="text;html=1;align=center;verticalAlign=middle;whiteSpace=wrap;rounded=0;fontSize=16;" vertex="1" parent="1">
          <mxGeometry x="763" y="303.5" width="17" height="20" as="geometry" />
        </mxCell>
        <mxCell id="m2BZuW3RzS-7wvQAcyOY-28" value="$$P_{AC}$$" style="text;html=1;align=center;verticalAlign=middle;whiteSpace=wrap;rounded=0;fontSize=16;" vertex="1" parent="1">
          <mxGeometry x="718" y="231.5" width="20" height="20" as="geometry" />
        </mxCell>
        <mxCell id="m2BZuW3RzS-7wvQAcyOY-29" value="$$P_{ACD}$$" style="text;html=1;align=center;verticalAlign=middle;whiteSpace=wrap;rounded=0;fontSize=16;" vertex="1" parent="1">
          <mxGeometry x="769" y="164.5" width="20" height="20" as="geometry" />
        </mxCell>
        <mxCell id="m2BZuW3RzS-7wvQAcyOY-30" value="" style="endArrow=none;html=1;rounded=0;strokeWidth=2;" edge="1" parent="1">
          <mxGeometry width="50" height="50" relative="1" as="geometry">
            <mxPoint x="738" y="231.5" as="sourcePoint" />
            <mxPoint x="768" y="191.5" as="targetPoint" />
          </mxGeometry>
        </mxCell>
        <mxCell id="m2BZuW3RzS-7wvQAcyOY-31" value="" style="endArrow=none;html=1;rounded=0;strokeWidth=2;" edge="1" parent="1">
          <mxGeometry width="50" height="50" relative="1" as="geometry">
            <mxPoint x="813" y="231.5" as="sourcePoint" />
            <mxPoint x="783" y="191.5" as="targetPoint" />
          </mxGeometry>
        </mxCell>
        <mxCell id="m2BZuW3RzS-7wvQAcyOY-32" value="$$D$$" style="text;html=1;align=center;verticalAlign=middle;whiteSpace=wrap;rounded=0;fontSize=16;" vertex="1" parent="1">
          <mxGeometry x="810" y="235.5" width="17" height="20" as="geometry" />
        </mxCell>
        <mxCell id="m2BZuW3RzS-7wvQAcyOY-33" value="" style="endArrow=none;html=1;rounded=0;strokeWidth=2;" edge="1" parent="1">
          <mxGeometry width="50" height="50" relative="1" as="geometry">
            <mxPoint x="789" y="163" as="sourcePoint" />
            <mxPoint x="819" y="123" as="targetPoint" />
          </mxGeometry>
        </mxCell>
        <mxCell id="m2BZuW3RzS-7wvQAcyOY-34" value="" style="endArrow=none;html=1;rounded=0;strokeWidth=2;" edge="1" parent="1">
          <mxGeometry width="50" height="50" relative="1" as="geometry">
            <mxPoint x="870" y="163" as="sourcePoint" />
            <mxPoint x="840" y="123" as="targetPoint" />
          </mxGeometry>
        </mxCell>
        <mxCell id="m2BZuW3RzS-7wvQAcyOY-35" value="$$B$$" style="text;html=1;align=center;verticalAlign=middle;whiteSpace=wrap;rounded=0;fontSize=16;" vertex="1" parent="1">
          <mxGeometry x="869" y="165.5" width="17" height="20" as="geometry" />
        </mxCell>
        <mxCell id="m2BZuW3RzS-7wvQAcyOY-38" value="$$Root$$" style="text;html=1;align=center;verticalAlign=middle;whiteSpace=wrap;rounded=0;fontSize=16;" vertex="1" parent="1">
          <mxGeometry x="820" y="94" width="20" height="20" as="geometry" />
        </mxCell>
        <mxCell id="m2BZuW3RzS-7wvQAcyOY-39" value="" style="shape=flexArrow;endArrow=classic;html=1;rounded=0;strokeWidth=2;" edge="1" parent="1">
          <mxGeometry width="50" height="50" relative="1" as="geometry">
            <mxPoint x="900" y="214.5" as="sourcePoint" />
            <mxPoint x="980" y="230" as="targetPoint" />
          </mxGeometry>
        </mxCell>
        <mxCell id="m2BZuW3RzS-7wvQAcyOY-44" value="$$B$$" style="rounded=0;whiteSpace=wrap;html=1;" vertex="1" parent="1">
          <mxGeometry x="1013" y="380" width="40" height="30" as="geometry" />
        </mxCell>
        <mxCell id="m2BZuW3RzS-7wvQAcyOY-45" value="1" style="rounded=0;whiteSpace=wrap;html=1;" vertex="1" parent="1">
          <mxGeometry x="1053" y="380" width="70" height="30" as="geometry" />
        </mxCell>
        <mxCell id="m2BZuW3RzS-7wvQAcyOY-46" value="$$D$$" style="rounded=0;whiteSpace=wrap;html=1;" vertex="1" parent="1">
          <mxGeometry x="1013" y="410" width="40" height="30" as="geometry" />
        </mxCell>
        <mxCell id="m2BZuW3RzS-7wvQAcyOY-47" value="01" style="rounded=0;whiteSpace=wrap;html=1;" vertex="1" parent="1">
          <mxGeometry x="1053" y="410" width="70" height="30" as="geometry" />
        </mxCell>
        <mxCell id="m2BZuW3RzS-7wvQAcyOY-48" value="$$C$$" style="rounded=0;whiteSpace=wrap;html=1;" vertex="1" parent="1">
          <mxGeometry x="1013" y="440" width="40" height="30" as="geometry" />
        </mxCell>
        <mxCell id="m2BZuW3RzS-7wvQAcyOY-49" value="001" style="rounded=0;whiteSpace=wrap;html=1;" vertex="1" parent="1">
          <mxGeometry x="1053" y="440" width="70" height="30" as="geometry" />
        </mxCell>
        <mxCell id="m2BZuW3RzS-7wvQAcyOY-50" value="$$A$$" style="rounded=0;whiteSpace=wrap;html=1;" vertex="1" parent="1">
          <mxGeometry x="1013" y="470" width="40" height="30" as="geometry" />
        </mxCell>
        <mxCell id="m2BZuW3RzS-7wvQAcyOY-51" value="000" style="rounded=0;whiteSpace=wrap;html=1;" vertex="1" parent="1">
          <mxGeometry x="1053" y="470" width="70" height="30" as="geometry" />
        </mxCell>
        <mxCell id="m2BZuW3RzS-7wvQAcyOY-52" value="Node" style="rounded=0;whiteSpace=wrap;html=1;" vertex="1" parent="1">
          <mxGeometry x="1013" y="360" width="40" height="20" as="geometry" />
        </mxCell>
        <mxCell id="m2BZuW3RzS-7wvQAcyOY-53" value="Code" style="rounded=0;whiteSpace=wrap;html=1;" vertex="1" parent="1">
          <mxGeometry x="1053" y="360" width="70" height="20" as="geometry" />
        </mxCell>
      </root>
    </mxGraphModel>
  </diagram>
</mxfile>
